<?xml version="1.0" standalone="no"?>
<!DOCTYPE svg PUBLIC "-//W3C//DTD SVG 20010904//EN"
 "http://www.w3.org/TR/2001/REC-SVG-20010904/DTD/svg10.dtd">
<svg version="1.0" xmlns="http://www.w3.org/2000/svg"
 width="310.000000pt" height="163.000000pt" viewBox="0 0 310.000000 163.000000"
 preserveAspectRatio="xMidYMid meet">

<g transform="translate(0.000000,163.000000) scale(0.100000,-0.100000)"
fill="#000000" stroke="none">
<path d="M928 1399 c-10 -5 -18 -17 -18 -26 0 -13 3 -14 12 -5 21 21 25 13 20
-43 -4 -49 -3 -55 15 -55 18 0 19 6 15 56 -4 54 -4 56 17 49 15 -4 21 -2 21 8
0 24 -52 34 -82 16z"/>
<path d="M1033 1403 c-9 -3 -13 -26 -13 -69 0 -51 3 -64 15 -64 11 0 15 8 13
28 -2 22 1 28 21 30 22 3 23 1 18 -27 -5 -23 -3 -31 8 -31 16 0 18 16 15 85
-2 48 -6 56 -25 49 -11 -5 -12 -11 -4 -25 8 -16 6 -19 -10 -19 -13 0 -21 8
-23 23 -2 14 -8 22 -15 20z"/>
<path d="M1175 1403 c-39 -6 -45 -17 -45 -80 l0 -53 40 0 c29 0 40 4 40 15 0
11 -8 15 -26 13 -32 -4 -45 21 -16 29 28 7 37 33 12 33 -11 0 -20 5 -20 10 0
6 11 10 25 10 16 0 25 6 25 15 0 8 -1 14 -2 14 -2 -1 -16 -4 -33 -6z"/>
<path d="M2886 1403 c-4 -4 -17 -8 -29 -8 -31 0 -35 -34 -6 -55 25 -20 24 -21
-51 -35 l-35 -7 23 25 c35 38 26 62 -23 62 -36 0 -40 -3 -43 -27 -2 -18 4 -31
20 -42 22 -16 21 -16 -30 -16 -54 0 -63 8 -37 30 9 7 15 23 13 34 -2 17 -10
21 -43 21 -45 0 -59 -23 -31 -54 15 -16 14 -17 -14 -13 -23 3 -30 1 -30 -13 0
-10 -13 -33 -30 -52 -33 -37 -37 -59 -17 -87 19 -26 82 -34 206 -28 111 5 161
-1 161 -18 0 -17 -280 -13 -329 4 l-41 15 -20 -46 c-11 -25 -20 -47 -20 -48 0
-2 18 -1 40 2 36 5 41 3 57 -25 l17 -30 36 18 c19 10 55 23 79 30 50 13 197
15 232 2 13 -5 37 -12 53 -16 25 -6 28 -5 20 11 -4 10 -8 47 -9 82 0 63 -1 65
-35 85 -32 19 -49 21 -183 19 -150 -2 -178 7 -86 26 90 20 225 9 312 -24 28
-11 20 9 -22 57 -30 33 -38 51 -34 67 l6 22 -34 -20 c-43 -26 -55 -27 -29 -1
11 11 20 24 20 29 0 13 -26 32 -34 24z"/>
<path d="M522 1323 c-12 -2 -26 -13 -32 -23 -19 -36 -80 -424 -110 -707 l-19
-178 5 210 c6 253 31 519 61 644 l6 24 -53 -29 c-73 -40 -151 -121 -193 -201
-38 -74 -67 -161 -67 -203 0 -15 -11 -39 -25 -54 -30 -32 -31 -50 -7 -74 12
-13 18 -38 20 -92 5 -125 53 -271 112 -340 l21 -25 -7 55 c-11 84 -8 365 5
455 6 44 20 114 31 155 l19 75 -5 -72 c-26 -360 -21 -677 11 -713 16 -18 133
-75 140 -68 2 2 9 77 15 168 16 234 91 772 106 758 1 -2 -8 -90 -21 -196 -32
-253 -45 -415 -48 -597 l-2 -150 69 -3 c67 -3 68 -3 62 20 -35 123 -25 345 35
793 23 173 40 239 79 312 22 42 25 53 13 57 -17 7 -186 6 -221 -1z"/>
<path d="M1385 1088 c0 -248 -11 -360 -52 -526 -18 -74 -14 -82 50 -89 l44 -5
7 78 c3 44 10 106 14 139 l7 60 6 -70 c4 -38 7 -103 8 -142 1 -81 3 -82 70
-63 52 15 110 59 137 105 34 59 32 70 -14 71 -50 2 -78 18 -102 57 -26 42 -25
88 2 122 19 25 26 27 71 22 l49 -4 -4 106 c-5 112 -36 221 -63 221 -20 0 -85
-78 -111 -134 -26 -57 -30 -46 -10 29 14 54 38 105 69 147 17 22 18 30 8 42
-18 21 -108 64 -151 71 l-35 6 0 -243z"/>
<path d="M1285 1301 c-16 -10 -39 -28 -49 -40 -18 -20 -18 -26 -7 -84 17 -83
26 -337 15 -423 -8 -63 -9 -55 -15 106 -6 153 -28 322 -44 338 -3 3 -16 -5
-29 -17 -29 -27 -76 -30 -111 -7 l-26 17 8 -28 c4 -15 8 -118 8 -228 -1 -216
-23 -397 -69 -576 -13 -49 -21 -89 -17 -89 3 0 34 26 69 58 l64 57 19 125 c10
69 22 190 26 270 7 135 8 141 16 85 9 -61 2 -350 -9 -395 -6 -21 -1 -18 30 18
38 42 62 50 96 32 23 -12 29 6 60 185 35 198 38 601 5 612 -5 1 -23 -5 -40
-16z"/>
<path d="M787 1260 c-53 -42 -82 -185 -127 -624 -32 -317 -24 -437 31 -466 68
-37 169 20 222 125 61 124 120 675 88 828 -26 120 -141 194 -214 137z m95
-166 c22 -48 -55 -721 -87 -771 -22 -33 -39 -24 -43 23 -6 79 75 735 94 766
10 15 25 8 36 -18z"/>
<path d="M2273 1227 l-153 -20 0 -86 c0 -47 -5 -103 -11 -124 -6 -22 -9 -40
-7 -42 4 -5 287 62 315 75 12 5 29 23 38 40 15 28 14 30 -3 30 -39 0 -126 -21
-133 -31 -3 -6 -27 -14 -53 -16 -36 -4 -46 -2 -46 9 0 11 31 20 127 36 71 12
130 27 135 34 4 7 7 36 6 63 -3 48 -4 50 -33 51 -16 1 -99 -7 -182 -19z m77
-66 c0 -9 -56 -21 -99 -21 -16 0 -21 4 -15 9 17 17 114 27 114 12z"/>
<path d="M1900 1180 c-69 -10 -149 -19 -177 -19 -29 -1 -53 -2 -53 -4 0 -1 9
-28 20 -58 10 -31 22 -97 26 -147 4 -51 10 -92 14 -92 6 0 57 13 283 71 26 7
44 20 57 42 33 53 28 60 -37 52 -45 -5 -63 -13 -78 -32 -16 -19 -30 -25 -70
-26 -44 -2 -50 0 -50 18 0 17 12 22 90 37 175 34 160 25 163 89 2 42 -1 61
-13 73 -19 19 -14 19 -175 -4z m80 -79 c0 -13 -21 -19 -92 -27 -76 -8 -71 10
7 24 67 13 85 14 85 3z"/>
<path d="M2671 1007 c-29 -32 -19 -58 20 -53 45 4 55 20 35 50 -20 32 -27 32
-55 3z"/>
<path d="M2768 1019 c-10 -5 -18 -21 -18 -34 0 -22 5 -25 35 -25 43 0 55 22
30 50 -21 23 -23 23 -47 9z"/>
<path d="M2867 1012 c-17 -19 -23 -51 -9 -53 4 0 21 -2 39 -4 38 -6 51 17 28
51 -19 29 -36 30 -58 6z"/>
</g>
</svg>
